<svg xmlns="http://www.w3.org/2000/svg" viewBox="0 0 64 64" role="img" aria-label="San Sebastian">
  <rect width="64" height="64" rx="14" fill="#f7fbfa"/>
  <path
    d="M31.5 10.5c-7.5 2.8-12.6 8.6-14.3 16.2 4.9-7.9 12.2-12 21.9-12.3-2.3-1.6-4.9-2.9-7.6-3.9Z"
    fill="#82c6bd"
  />
  <path
    d="M17.2 18.8c-3.4 1.3-6.4 2.9-9 4.9 1.6 7.4 5.3 13.4 11 18-2.3-7.8-3-15.4-2-22.9Z"
    fill="#67b9ad"
  />
  <path
    d="M23.7 28.1c5.4-7.9 14-10.7 25.8-8.6 1.2 9.8-1.8 18-8.8 24.4-6.8 6.2-17 9.2-25 4.1-7.5-4.8-7.3-14.8 8-19.9Z"
    fill="#8bcac1"
  />
  <path
    d="M21.7 47.4c5.2 2.7 12.4.9 18.2-3.4 4.2-3.2 7-7.3 8.2-12.3-6.5 9.9-15.3 15.1-26.4 15.7Z"
    fill="#284b36"
    opacity=".14"
  />
</svg>
